<?xml version="1.0" standalone="no"?>
<!DOCTYPE svg PUBLIC "-//W3C//DTD SVG 1.1//EN" "http://www.w3.org/Graphics/SVG/1.1/DTD/svg11.dtd" >
<svg xmlns="http://www.w3.org/2000/svg" xmlns:xlink="http://www.w3.org/1999/xlink" version="1.1">
<metadata>
Created by FontForge 20201107 at Tue Jul 24 09:40:29 2018
 By Jimmy Wärting
Copyright \(c\) 2018 by Creativetacos. All rights reserved.
</metadata>
<defs>
<font id="PiersonDemo" horiz-adv-x="0" >
  <font-face 
    font-family="Pierson"
    font-weight="400"
    font-stretch="normal"
    units-per-em="1000"
    panose-1="0 0 0 0 0 0 0 0 0 0"
    ascent="800"
    descent="-200"
    x-height="698"
    cap-height="699"
    bbox="48 -203 1279 813"
    underline-thickness="0"
    underline-position="0"
    stemh="23"
    stemv="93"
    unicode-range="U+000A-00A0"
  />
<missing-glyph horiz-adv-x="500" 
 />
    <glyph glyph-name=".notdef" horiz-adv-x="500" 
 />
    <glyph glyph-name="NULL" 
 />
    <glyph glyph-name="CR" unicode="&#xd;" 
 />
    <glyph glyph-name="CR" 
 />
    <glyph glyph-name="space" unicode=" " horiz-adv-x="389" 
 />
    <glyph glyph-name="controlLF" unicode="&#xa;" 
 />
    <glyph glyph-name="zero" unicode="0" horiz-adv-x="583" 
d="M50 341c0 126 101 241 241 241c126 0 241 -101 241 -241c0 -126 -101 -241 -241 -241c-126 0 -241 101 -241 241zM87 341c0 -121 98 -209 205 -209c119 0 204 100 204 209c0 122 -98 209 -205 209c-119 0 -204 -100 -204 -209z" />
    <glyph glyph-name="one" unicode="1" horiz-adv-x="251" 
d="M201 128v-19h-151v19c22 0 36 16 36 47v334c0 31 -14 47 -36 47v19h151v-19c-22 0 -36 -16 -36 -47v-334c0 -31 14 -47 36 -47z" />
    <glyph glyph-name="two" unicode="2" horiz-adv-x="622" 
d="M481 179l1 -1c40 0 69 7 79 17c0 0 8 -1 12 -1c-5 -6 -11 -13 -17 -21l-40 -64h-466c4 0 8 0 12 1l-10 7c207 106 397 225 397 294c0 65 -66 111 -158 111c-99 0 -184 -60 -200 -144l-16 4c22 116 130 201 256 201c113 0 196 -64 196 -153c0 -63 -220 -196 -462 -319
c49 10 113 68 158 68h258z" />
    <glyph glyph-name="three" unicode="3" horiz-adv-x="534" 
d="M50 -91v1c203 21 350 98 350 183c0 70 -115 136 -274 158c2 0 4 1 6 3l-6 -3v16c150 64 260 130 260 174c0 50 -58 86 -137 86c-91 0 -166 -41 -179 -97l-18 5c19 85 116 147 228 147c110 0 189 -48 189 -115c0 -45 -116 -116 -285 -191c176 -6 300 -72 300 -161
c0 -102 -181 -196 -431 -222z" />
    <glyph glyph-name="four" unicode="4" horiz-adv-x="809" 
d="M686 169h3c28 0 47 9 55 22c0 0 11 -1 17 -1c-2 -15 -5 -36 -8 -51h1c-2 -11 -5 -29 -6 -40h-6c-19 1 -13 1 -13 1l-2 1c-4 5 -25 8 -49 8h-173v-204h-79v204h-376v14l445 478h10v-432h181zM134 169h295v313z" />
    <glyph glyph-name="five" unicode="5" horiz-adv-x="531" 
d="M366 573l1 1c27 0 46 4 54 9h18l-3 -9l-12 -69l-283 -2l-41 -137h10c216 0 372 -88 372 -211c0 -124 -170 -235 -404 -264l-1 15c195 24 336 117 336 222c0 89 -131 154 -312 154h-35l-15 13l74 278h241z" />
    <glyph glyph-name="six" unicode="6" horiz-adv-x="651" 
d="M598 805l2 -11c-231 0 -407 -136 -457 -338c33 50 94 82 169 82c147 0 253 -87 253 -207c0 -134 -105 -232 -250 -232c-154 0 -265 117 -265 280c0 247 230 426 548 426zM128 338c0 -135 78 -233 186 -233c99 0 171 97 171 230c0 114 -74 197 -176 197
c-105 0 -181 -82 -181 -194z" />
    <glyph glyph-name="seven" unicode="7" horiz-adv-x="554" 
d="M126 513h-2c-28 0 -48 -6 -59 -13c0 0 -13 1 -17 1c6 12 14 31 20 43h3l15 28l3 3h19c5 -1 26 -1 50 -1h345v-14l-320 -655h-60l357 624l-13 -17h-341v1z" />
    <glyph glyph-name="eight" unicode="8" horiz-adv-x="613" 
d="M226 462v-1c-92 43 -153 110 -153 184c0 97 97 168 231 168c137 0 235 -63 235 -150c0 -69 -68 -135 -168 -169c114 -46 192 -110 192 -226c0 -98 -108 -170 -258 -170c-148 0 -256 72 -256 171c0 81 72 156 177 193zM237 456c-72 -33 -119 -105 -119 -187
c0 -97 78 -167 187 -167c113 0 196 83 196 198c0 58 -90 100 -215 139c-17 6 -33 12 -49 18v-1zM361 496l-1 2c66 30 110 90 110 157c0 90 -69 155 -164 155c-99 0 -170 -57 -170 -135c0 -68 73 -129 173 -161c18 -6 35 -12 52 -18z" />
    <glyph glyph-name="nine" unicode="9" horiz-adv-x="651" 
d="M53 -123l-2 11c231 0 407 136 457 338c-33 -50 -94 -82 -169 -82c-147 0 -253 87 -253 207c0 134 105 232 250 232c154 0 265 -117 265 -280c0 -247 -230 -426 -548 -426zM523 344c0 135 -78 233 -186 233c-99 0 -171 -97 -171 -230c0 -114 74 -197 176 -197
c105 0 181 82 181 194z" />
    <glyph glyph-name="A" unicode="A" horiz-adv-x="808" 
d="M174 118v1c-20 -54 -8 -93 28 -93h11v-23h-163v23h13c41 0 85 39 105 93l204 543l-4 9c42 6 70 25 66 46h9c6 0 18 -46 18 -46l215 -553c20 -54 52 -93 74 -93h7v-23h-217v23h11c36 0 47 39 27 93c-19 51 -39 104 -58 156h-287zM234 282h281l-142 374z" />
    <glyph glyph-name="A" unicode="&#xc5;" horiz-adv-x="808" 
d="M174 118v1c-20 -54 -8 -93 28 -93h11v-23h-163v23h13c41 0 85 39 105 93l204 543l-4 9c42 6 70 25 66 46h9c6 0 18 -46 18 -46l215 -553c20 -54 52 -93 74 -93h7v-23h-217v23h11c36 0 47 39 27 93c-19 51 -39 104 -58 156h-287zM234 282h281l-142 374z" />
    <glyph glyph-name="A" unicode="&#xc4;" horiz-adv-x="808" 
d="M174 118v1c-20 -54 -8 -93 28 -93h11v-23h-163v23h13c41 0 85 39 105 93l204 543l-4 9c42 6 70 25 66 46h9c6 0 18 -46 18 -46l215 -553c20 -54 52 -93 74 -93h7v-23h-217v23h11c36 0 47 39 27 93c-19 51 -39 104 -58 156h-287zM234 282h281l-142 374z" />
    <glyph glyph-name="A" unicode="&#xc3;" horiz-adv-x="808" 
d="M174 118v1c-20 -54 -8 -93 28 -93h11v-23h-163v23h13c41 0 85 39 105 93l204 543l-4 9c42 6 70 25 66 46h9c6 0 18 -46 18 -46l215 -553c20 -54 52 -93 74 -93h7v-23h-217v23h11c36 0 47 39 27 93c-19 51 -39 104 -58 156h-287zM234 282h281l-142 374z" />
    <glyph glyph-name="A" unicode="&#xc2;" horiz-adv-x="808" 
d="M174 118v1c-20 -54 -8 -93 28 -93h11v-23h-163v23h13c41 0 85 39 105 93l204 543l-4 9c42 6 70 25 66 46h9c6 0 18 -46 18 -46l215 -553c20 -54 52 -93 74 -93h7v-23h-217v23h11c36 0 47 39 27 93c-19 51 -39 104 -58 156h-287zM234 282h281l-142 374z" />
    <glyph glyph-name="A" unicode="&#xc1;" horiz-adv-x="808" 
d="M174 118v1c-20 -54 -8 -93 28 -93h11v-23h-163v23h13c41 0 85 39 105 93l204 543l-4 9c42 6 70 25 66 46h9c6 0 18 -46 18 -46l215 -553c20 -54 52 -93 74 -93h7v-23h-217v23h11c36 0 47 39 27 93c-19 51 -39 104 -58 156h-287zM234 282h281l-142 374z" />
    <glyph glyph-name="A" unicode="&#xc0;" horiz-adv-x="808" 
d="M174 118v1c-20 -54 -8 -93 28 -93h11v-23h-163v23h13c41 0 85 39 105 93l204 543l-4 9c42 6 70 25 66 46h9c6 0 18 -46 18 -46l215 -553c20 -54 52 -93 74 -93h7v-23h-217v23h11c36 0 47 39 27 93c-19 51 -39 104 -58 156h-287zM234 282h281l-142 374z" />
    <glyph glyph-name="B" unicode="B" horiz-adv-x="719" 
d="M290 2h-239v23c22 0 36 16 36 47v557c0 31 -14 47 -36 47v23h243c274 0 350 -71 350 -168c0 -86 -118 -152 -290 -168c185 -9 315 -82 315 -180c0 -142 -159 -181 -379 -181zM283 3h2c164 0 284 39 284 179c0 100 -108 173 -258 177c-12 -1 -25 -1 -38 -1h-93v-273
c0 -48 24 -82 57 -82h46zM272 364l1 1c163 0 281 66 281 158c0 99 -58 171 -267 171h-105v-330h90z" />
    <glyph glyph-name="C" unicode="C" horiz-adv-x="805" 
d="M755 45l-15 2l-5 8c-6 12 -34 6 -65 -10c-58 -32 -135 -52 -240 -52c-220 0 -380 150 -380 357s164 357 392 357c108 0 179 -19 231 -50c31 -17 57 -24 63 -14l5 7h16v-116h-20l-9 17c-22 44 -66 90 -104 110c-46 25 -102 40 -177 40c-169 0 -292 -148 -292 -352
s117 -352 280 -352c73 0 133 16 183 42c41 21 87 67 108 108l9 17h20v-119z" />
    <glyph glyph-name="C" unicode="&#xc7;" horiz-adv-x="805" 
d="M755 45l-15 2l-5 8c-6 12 -34 6 -65 -10c-58 -32 -135 -52 -240 -52c-220 0 -380 150 -380 357s164 357 392 357c108 0 179 -19 231 -50c31 -17 57 -24 63 -14l5 7h16v-116h-20l-9 17c-22 44 -66 90 -104 110c-46 25 -102 40 -177 40c-169 0 -292 -148 -292 -352
s117 -352 280 -352c73 0 133 16 183 42c41 21 87 67 108 108l9 17h20v-119z" />
    <glyph glyph-name="D" unicode="D" horiz-adv-x="847" 
d="M50 698l291 -3c291 0 456 -146 456 -348c0 -222 -215 -348 -510 -348h-237v19c22 0 36 16 36 47v567c0 31 -14 47 -36 47v19zM280 3v1c241 0 416 124 416 343c0 200 -136 344 -374 344h-142v-618c0 -40 13 -70 100 -70z" />
    <glyph glyph-name="E" unicode="E" horiz-adv-x="655" 
d="M50 2l-2 19h8c27 0 47 27 47 65v529c0 38 -19 65 -46 65h-8v19h519v-2c3 -25 8 -60 12 -85h-16l-6 12c-18 41 -63 71 -107 71h-255v-329h199c43 0 84 30 97 71l4 12h16v-83h1v-6h-1v-83h-16l-4 12c-13 41 -54 71 -97 71h-199v-283c0 -40 9 -70 74 -70h181
c57 0 112 26 132 62l6 11h16c-2 -9 -13 -74 -13 -78h-542z" />
    <glyph glyph-name="E" unicode="&#xcb;" horiz-adv-x="655" 
d="M50 2l-2 19h8c27 0 47 27 47 65v529c0 38 -19 65 -46 65h-8v19h519v-2c3 -25 8 -60 12 -85h-16l-6 12c-18 41 -63 71 -107 71h-255v-329h199c43 0 84 30 97 71l4 12h16v-83h1v-6h-1v-83h-16l-4 12c-13 41 -54 71 -97 71h-199v-283c0 -40 9 -70 74 -70h181
c57 0 112 26 132 62l6 11h16c-2 -9 -13 -74 -13 -78h-542z" />
    <glyph glyph-name="E" unicode="&#xca;" horiz-adv-x="655" 
d="M50 2l-2 19h8c27 0 47 27 47 65v529c0 38 -19 65 -46 65h-8v19h519v-2c3 -25 8 -60 12 -85h-16l-6 12c-18 41 -63 71 -107 71h-255v-329h199c43 0 84 30 97 71l4 12h16v-83h1v-6h-1v-83h-16l-4 12c-13 41 -54 71 -97 71h-199v-283c0 -40 9 -70 74 -70h181
c57 0 112 26 132 62l6 11h16c-2 -9 -13 -74 -13 -78h-542z" />
    <glyph glyph-name="E" unicode="&#xc9;" horiz-adv-x="655" 
d="M50 2l-2 19h8c27 0 47 27 47 65v529c0 38 -19 65 -46 65h-8v19h519v-2c3 -25 8 -60 12 -85h-16l-6 12c-18 41 -63 71 -107 71h-255v-329h199c43 0 84 30 97 71l4 12h16v-83h1v-6h-1v-83h-16l-4 12c-13 41 -54 71 -97 71h-199v-283c0 -40 9 -70 74 -70h181
c57 0 112 26 132 62l6 11h16c-2 -9 -13 -74 -13 -78h-542z" />
    <glyph glyph-name="E" unicode="&#xc8;" horiz-adv-x="655" 
d="M50 2l-2 19h8c27 0 47 27 47 65v529c0 38 -19 65 -46 65h-8v19h519v-2c3 -25 8 -60 12 -85h-16l-6 12c-18 41 -63 71 -107 71h-255v-329h199c43 0 84 30 97 71l4 12h16v-83h1v-6h-1v-83h-16l-4 12c-13 41 -54 71 -97 71h-199v-283c0 -40 9 -70 74 -70h181
c57 0 112 26 132 62l6 11h16c-2 -9 -13 -74 -13 -78h-542z" />
    <glyph glyph-name="F" unicode="F" horiz-adv-x="630" 
d="M50 680v18h519v-2h1c3 -24 8 -60 11 -84h-16l-6 12c-18 41 -63 71 -106 71h-256v-330h190c43 0 84 30 97 71l4 12h16v-171h-16l-4 12c-13 41 -54 71 -97 71h-190v-274c0 -38 19 -65 46 -65h8v-19h-202v19h8c27 0 47 27 47 65v529c0 38 -19 65 -46 65h-8z" />
    <glyph glyph-name="G" unicode="G" horiz-adv-x="855" 
d="M739 652l13 5v-116h-20l-9 17c-22 44 -66 90 -104 110c-46 25 -102 40 -177 40c-169 0 -292 -148 -292 -352c0 -197 124 -339 295 -339c109 0 190 39 198 96v94c0 46 -17 79 -39 79h-6v23h184v-23h-6c-22 0 -39 -33 -39 -79v-162c25 6 46 13 65 21l2 -4
c-84 -39 -200 -67 -374 -67c-221 0 -382 150 -382 357s164 357 392 357c108 0 179 -19 231 -50c31 -17 57 -24 63 -14zM565 20h-1c-42 -2 -91 -4 -120 -4c45 0 85 1 121 4z" />
    <glyph glyph-name="H" unicode="H" horiz-adv-x="767" 
d="M717 20v-19h-165v19c22 0 36 16 36 47v291h-409v-291c0 -31 14 -47 36 -47v-19h-165v19c22 0 36 16 36 47v566c0 31 -14 47 -36 47v19h165v-19c-22 0 -36 -16 -36 -47v-269h409v269c0 31 -14 47 -36 47v19h165v-19c-22 0 -36 -16 -36 -47v-566c0 -31 14 -47 36 -47z" />
    <glyph glyph-name="I" unicode="I" horiz-adv-x="265" 
d="M215 20v-19h-165v19c22 0 36 16 36 47v566c0 31 -14 47 -36 47v19h165v-19c-22 0 -36 -16 -36 -47v-566c0 -31 14 -47 36 -47z" />
    <glyph glyph-name="I" unicode="&#xcf;" horiz-adv-x="265" 
d="M215 20v-19h-165v19c22 0 36 16 36 47v566c0 31 -14 47 -36 47v19h165v-19c-22 0 -36 -16 -36 -47v-566c0 -31 14 -47 36 -47z" />
    <glyph glyph-name="I" unicode="&#xce;" horiz-adv-x="265" 
d="M215 20v-19h-165v19c22 0 36 16 36 47v566c0 31 -14 47 -36 47v19h165v-19c-22 0 -36 -16 -36 -47v-566c0 -31 14 -47 36 -47z" />
    <glyph glyph-name="I" unicode="&#xcd;" horiz-adv-x="265" 
d="M215 20v-19h-165v19c22 0 36 16 36 47v566c0 31 -14 47 -36 47v19h165v-19c-22 0 -36 -16 -36 -47v-566c0 -31 14 -47 36 -47z" />
    <glyph glyph-name="I" unicode="&#xcc;" horiz-adv-x="265" 
d="M215 20v-19h-165v19c22 0 36 16 36 47v566c0 31 -14 47 -36 47v19h165v-19c-22 0 -36 -16 -36 -47v-566c0 -31 14 -47 36 -47z" />
    <glyph glyph-name="J" unicode="J" horiz-adv-x="470" 
d="M420 680v1c-22 0 -36 -16 -36 -47v-524c0 -254 -136 -313 -228 -313c-61 0 -106 17 -106 41s18 42 42 42c45 0 25 -74 70 -74c52 0 129 24 129 129v698c0 31 -14 47 -36 47v19h165v-19z" />
    <glyph glyph-name="K" unicode="K" horiz-adv-x="769" 
d="M640 698l-1 -16c-34 0 -72 -18 -114 -52l-262 -228l368 -333c33 -30 64 -47 88 -47v-19h-150l-390 348v-283c0 -31 14 -47 36 -47v-19h-165v19c22 0 36 16 36 47v566c0 31 -14 47 -36 47v19h165v-19c-22 0 -36 -16 -36 -47v-283l268 241c55 51 68 87 29 87h-12v19h176z
" />
    <glyph glyph-name="L" unicode="L" horiz-adv-x="659" 
d="M215 698l1 -21c-22 0 -36 -16 -36 -47v-557c0 -34 9 -58 74 -58h202c57 0 112 26 132 62l6 11h16c-5 -22 -11 -53 -16 -76v-12h-544v19c22 0 36 16 36 47v566c0 31 -14 47 -36 47v19h165z" />
    <glyph glyph-name="M" unicode="M" horiz-adv-x="901" 
d="M828 698l6 -18c-21 0 -33 -13 -34 -41l19 -573c1 -31 15 -47 37 -47v-19h-165v19c22 0 35 16 34 47c-5 186 -11 373 -16 559l-263 -624h-23c-97 202 -195 404 -293 606l-9 -549c2 -27 15 -39 36 -39v-19h-105v19c22 0 36 16 37 47c6 195 12 391 18 586
c-15 19 -29 27 -49 27v19h139l268 -584l239 584h124z" />
    <glyph glyph-name="N" unicode="N" horiz-adv-x="797" 
d="M50 697h137l498 -555l-1 490c0 31 -14 47 -36 47v19h100v-19c-21 0 -34 -13 -37 -40l-6 -638h-19l-522 591l3 -526c0 -31 14 -47 36 -47v-19h-100v19c22 0 36 16 36 47l1 553l-18 19c-26 27 -49 41 -72 41v18z" />
    <glyph glyph-name="N" unicode="&#xd1;" horiz-adv-x="797" 
d="M50 697h137l498 -555l-1 490c0 31 -14 47 -36 47v19h100v-19c-21 0 -34 -13 -37 -40l-6 -638h-19l-522 591l3 -526c0 -31 14 -47 36 -47v-19h-100v19c22 0 36 16 36 47l1 553l-18 19c-26 27 -49 41 -72 41v18z" />
    <glyph glyph-name="O" unicode="O" horiz-adv-x="897" 
d="M50 350h2c0 207 165 357 393 357c234 0 403 -150 403 -357s-173 -357 -413 -357c-223 0 -385 150 -385 357zM153 350c0 -203 120 -351 284 -351c180 0 311 148 311 351s-127 351 -303 351c-169 0 -292 -148 -292 -351z" />
    <glyph glyph-name="O" unicode="&#xd8;" horiz-adv-x="897" 
d="M50 350h2c0 207 165 357 393 357c234 0 403 -150 403 -357s-173 -357 -413 -357c-223 0 -385 150 -385 357zM153 350c0 -203 120 -351 284 -351c180 0 311 148 311 351s-127 351 -303 351c-169 0 -292 -148 -292 -351z" />
    <glyph glyph-name="O" unicode="&#xd6;" horiz-adv-x="897" 
d="M50 350h2c0 207 165 357 393 357c234 0 403 -150 403 -357s-173 -357 -413 -357c-223 0 -385 150 -385 357zM153 350c0 -203 120 -351 284 -351c180 0 311 148 311 351s-127 351 -303 351c-169 0 -292 -148 -292 -351z" />
    <glyph glyph-name="O" unicode="&#xd5;" horiz-adv-x="897" 
d="M50 350h2c0 207 165 357 393 357c234 0 403 -150 403 -357s-173 -357 -413 -357c-223 0 -385 150 -385 357zM153 350c0 -203 120 -351 284 -351c180 0 311 148 311 351s-127 351 -303 351c-169 0 -292 -148 -292 -351z" />
    <glyph glyph-name="O" unicode="&#xd4;" horiz-adv-x="897" 
d="M50 350h2c0 207 165 357 393 357c234 0 403 -150 403 -357s-173 -357 -413 -357c-223 0 -385 150 -385 357zM153 350c0 -203 120 -351 284 -351c180 0 311 148 311 351s-127 351 -303 351c-169 0 -292 -148 -292 -351z" />
    <glyph glyph-name="O" unicode="&#xd3;" horiz-adv-x="897" 
d="M50 350h2c0 207 165 357 393 357c234 0 403 -150 403 -357s-173 -357 -413 -357c-223 0 -385 150 -385 357zM153 350c0 -203 120 -351 284 -351c180 0 311 148 311 351s-127 351 -303 351c-169 0 -292 -148 -292 -351z" />
    <glyph glyph-name="O" unicode="&#xd2;" horiz-adv-x="897" 
d="M50 350h2c0 207 165 357 393 357c234 0 403 -150 403 -357s-173 -357 -413 -357c-223 0 -385 150 -385 357zM153 350c0 -203 120 -351 284 -351c180 0 311 148 311 351s-127 351 -303 351c-169 0 -292 -148 -292 -351z" />
    <glyph glyph-name="P" unicode="P" horiz-adv-x="675" 
d="M215 20v-20h-165v19c22 0 36 16 36 47v566c0 31 -14 47 -36 47v19h264c180 0 311 -83 311 -196c0 -121 -159 -181 -379 -181h-67v-254c0 -31 14 -47 36 -47zM179 339l66 -1c169 0 292 59 292 177c0 96 -104 166 -247 166h-111v-342z" />
    <glyph glyph-name="Q" unicode="Q" horiz-adv-x="934" 
d="M1276 -46l3 -2c-68 -57 -225 -98 -375 -98c-197 0 -462 70 -632 167c-134 54 -220 176 -220 327c0 207 165 357 393 357c234 0 403 -150 403 -357s-173 -357 -413 -357c-20 0 -40 1 -59 4c101 -46 319 -78 537 -78c182 0 333 17 361 40zM154 348h-1
c0 -206 117 -355 278 -355c184 0 318 149 318 355c0 203 -127 351 -303 351c-169 0 -292 -148 -292 -351z" />
    <glyph glyph-name="R" unicode="R" horiz-adv-x="791" 
d="M50 680l2 19h308c152 0 263 -83 263 -197c0 -89 -69 -143 -172 -163c28 -41 94 -139 177 -263c34 -52 42 -56 114 -56v-19c-161 0 -177 6 -223 75c-82 121 -145 220 -164 255h-176v-265c0 -31 14 -47 36 -47v-19h-165v19c22 0 36 16 36 47v567c0 31 -14 47 -36 47z
M181 355l179 -1c93 0 160 55 160 166c0 93 -79 160 -188 160h-151v-325z" />
    <glyph glyph-name="S" unicode="S" horiz-adv-x="612" 
d="M508 659l21 -2v-104h-20l-9 18c-22 46 -68 91 -110 109c-33 13 -71 20 -110 20c-80 0 -139 -59 -139 -142c0 -48 78 -111 215 -161c134 -48 210 -134 210 -214c0 -111 -100 -192 -237 -192c-67 0 -133 19 -185 51c-34 20 -63 26 -69 11l-4 -11h-17v137h21l8 -19
c23 -52 69 -105 110 -127s87 -35 133 -35c95 0 164 66 164 157c0 44 -70 101 -192 146c-149 54 -234 143 -234 223c0 106 89 183 212 183c38 0 75 -5 108 -14l2 4c11 -4 21 -9 31 -15c15 -6 76 -40 86 -28z" />
    <glyph glyph-name="T" unicode="T" horiz-adv-x="862" 
d="M348 2l4 17c22 0 36 16 36 47v608h-186c-46 0 -99 -26 -126 -62l-8 -11h-16c9 23 21 55 31 79v17l-1 -2v3v1h701v-20c9 -24 21 -54 30 -76h-16l-8 11c-28 36 -81 62 -127 62h-185v-608c0 -31 14 -47 36 -47v-19h-165zM84 695l-4 -9c1 2 2 6 4 9zM790 685l-4 9
c2 -3 3 -7 4 -9z" />
    <glyph glyph-name="U" unicode="U" horiz-adv-x="773" 
d="M723 43l-1 -20c-2 -1 -36 -8 -36 -11l-46 -12h-46v151c-44 -93 -155 -161 -266 -161c-141 0 -243 97 -243 231v410c0 31 -14 47 -36 47v19h129v-475c0 -99 79 -170 188 -170c93 0 189 60 228 143v438c0 31 -14 47 -36 47v19h129v-619c0 -32 16 -43 36 -37z" />
    <glyph glyph-name="U" unicode="&#xdc;" horiz-adv-x="773" 
d="M723 43l-1 -20c-2 -1 -36 -8 -36 -11l-46 -12h-46v151c-44 -93 -155 -161 -266 -161c-141 0 -243 97 -243 231v410c0 31 -14 47 -36 47v19h129v-475c0 -99 79 -170 188 -170c93 0 189 60 228 143v438c0 31 -14 47 -36 47v19h129v-619c0 -32 16 -43 36 -37z" />
    <glyph glyph-name="U" unicode="&#xdb;" horiz-adv-x="773" 
d="M723 43l-1 -20c-2 -1 -36 -8 -36 -11l-46 -12h-46v151c-44 -93 -155 -161 -266 -161c-141 0 -243 97 -243 231v410c0 31 -14 47 -36 47v19h129v-475c0 -99 79 -170 188 -170c93 0 189 60 228 143v438c0 31 -14 47 -36 47v19h129v-619c0 -32 16 -43 36 -37z" />
    <glyph glyph-name="U" unicode="&#xda;" horiz-adv-x="773" 
d="M723 43l-1 -20c-2 -1 -36 -8 -36 -11l-46 -12h-46v151c-44 -93 -155 -161 -266 -161c-141 0 -243 97 -243 231v410c0 31 -14 47 -36 47v19h129v-475c0 -99 79 -170 188 -170c93 0 189 60 228 143v438c0 31 -14 47 -36 47v19h129v-619c0 -32 16 -43 36 -37z" />
    <glyph glyph-name="U" unicode="&#xd9;" horiz-adv-x="773" 
d="M723 43l-1 -20c-2 -1 -36 -8 -36 -11l-46 -12h-46v151c-44 -93 -155 -161 -266 -161c-141 0 -243 97 -243 231v410c0 31 -14 47 -36 47v19h129v-475c0 -99 79 -170 188 -170c93 0 189 60 228 143v438c0 31 -14 47 -36 47v19h129v-619c0 -32 16 -43 36 -37z" />
    <glyph glyph-name="V" unicode="V" horiz-adv-x="835" 
d="M117 589l2 1c-26 53 -50 86 -68 86v23h205v-23h-10c-34 0 -42 -35 -22 -85l227 -487l220 488c19 48 5 82 -35 82h-13v23h163v-23c-26 0 -53 -30 -80 -82l-287 -601h-19c-95 199 -189 399 -283 598z" />
    <glyph glyph-name="W" unicode="W" horiz-adv-x="1187" 
d="M556 601l-3 1c-21 46 -42 74 -64 74v23h202v-23h-10c-31 0 -42 -27 -28 -65l216 -480l162 479c9 38 -11 65 -50 65h-12v23h165v-23h-6c-22 0 -50 -32 -65 -75c-72 -202 -144 -405 -216 -607h-23c-65 148 -130 295 -195 442l-227 -441h-23l-276 621c-19 39 -37 61 -55 61
v23h178v-23h-7c-38 0 -6 -74 -6 -74l226 -488l176 352z" />
    <glyph glyph-name="X" unicode="X" horiz-adv-x="817" 
d="M189 20l2 -19h-140v19c31 0 62 18 91 51c76 87 151 174 226 261l-245 308c-21 25 -40 39 -53 39v19h172v-19h-6c-19 0 -16 -21 7 -51c63 -80 128 -161 191 -241l207 242c23 29 20 49 -8 49h-8v19h143v-19c-29 0 -62 -18 -94 -50l-238 -247l256 -322c22 -25 41 -40 54 -40
v-19h-173v19h6c19 0 16 21 -7 51c-64 82 -130 165 -195 247l-207 -250c-21 -28 -17 -47 11 -47h8z" />
    <glyph glyph-name="Y" unicode="Y" horiz-adv-x="785" 
d="M299 2l-2 19h8c27 0 47 27 47 65v215l-242 328c-23 32 -44 52 -59 52v19h173v-19h-6c-20 0 -19 -21 2 -51c73 -102 149 -205 223 -307l202 309c18 29 11 49 -18 49h-10v19h119v-19c-30 0 -58 -19 -79 -52l-210 -315v-228c0 -38 19 -65 46 -65h8v-19h-202z" />
    <glyph glyph-name="Y" unicode="&#xdd;" horiz-adv-x="785" 
d="M299 2l-2 19h8c27 0 47 27 47 65v215l-242 328c-23 32 -44 52 -59 52v19h173v-19h-6c-20 0 -19 -21 2 -51c73 -102 149 -205 223 -307l202 309c18 29 11 49 -18 49h-10v19h119v-19c-30 0 -58 -19 -79 -52l-210 -315v-228c0 -38 19 -65 46 -65h8v-19h-202z" />
    <glyph glyph-name="Z" unicode="Z" horiz-adv-x="746" 
d="M84 599l-2 1c3 33 5 59 6 74h-1l3 26h585v-19l-515 -658l378 6c57 1 114 28 135 64l6 11h16c-7 -33 -13 -59 -17 -74h1l-6 -28h-623v19l525 658l-351 -5c-55 -3 -105 -29 -120 -64l-5 -11h-15z" />
    <glyph glyph-name="a" unicode="a" horiz-adv-x="808" 
d="M174 118v1c-20 -54 -8 -93 28 -93h11v-23h-163v23h13c41 0 85 39 105 93l204 543l-4 9c42 6 70 25 66 46h9c6 0 18 -46 18 -46l215 -553c20 -54 52 -93 74 -93h7v-23h-217v23h11c36 0 47 39 27 93c-19 51 -39 104 -58 156h-287zM234 282h281l-142 374z" />
    <glyph glyph-name="a" unicode="&#xe5;" horiz-adv-x="808" 
d="M174 118v1c-20 -54 -8 -93 28 -93h11v-23h-163v23h13c41 0 85 39 105 93l204 543l-4 9c42 6 70 25 66 46h9c6 0 18 -46 18 -46l215 -553c20 -54 52 -93 74 -93h7v-23h-217v23h11c36 0 47 39 27 93c-19 51 -39 104 -58 156h-287zM234 282h281l-142 374z" />
    <glyph glyph-name="a" unicode="&#xe4;" horiz-adv-x="808" 
d="M174 118v1c-20 -54 -8 -93 28 -93h11v-23h-163v23h13c41 0 85 39 105 93l204 543l-4 9c42 6 70 25 66 46h9c6 0 18 -46 18 -46l215 -553c20 -54 52 -93 74 -93h7v-23h-217v23h11c36 0 47 39 27 93c-19 51 -39 104 -58 156h-287zM234 282h281l-142 374z" />
    <glyph glyph-name="a" unicode="&#xe3;" horiz-adv-x="808" 
d="M174 118v1c-20 -54 -8 -93 28 -93h11v-23h-163v23h13c41 0 85 39 105 93l204 543l-4 9c42 6 70 25 66 46h9c6 0 18 -46 18 -46l215 -553c20 -54 52 -93 74 -93h7v-23h-217v23h11c36 0 47 39 27 93c-19 51 -39 104 -58 156h-287zM234 282h281l-142 374z" />
    <glyph glyph-name="a" unicode="&#xe2;" horiz-adv-x="808" 
d="M174 118v1c-20 -54 -8 -93 28 -93h11v-23h-163v23h13c41 0 85 39 105 93l204 543l-4 9c42 6 70 25 66 46h9c6 0 18 -46 18 -46l215 -553c20 -54 52 -93 74 -93h7v-23h-217v23h11c36 0 47 39 27 93c-19 51 -39 104 -58 156h-287zM234 282h281l-142 374z" />
    <glyph glyph-name="a" unicode="&#xe1;" horiz-adv-x="808" 
d="M174 118v1c-20 -54 -8 -93 28 -93h11v-23h-163v23h13c41 0 85 39 105 93l204 543l-4 9c42 6 70 25 66 46h9c6 0 18 -46 18 -46l215 -553c20 -54 52 -93 74 -93h7v-23h-217v23h11c36 0 47 39 27 93c-19 51 -39 104 -58 156h-287zM234 282h281l-142 374z" />
    <glyph glyph-name="a" unicode="&#xe0;" horiz-adv-x="808" 
d="M174 118v1c-20 -54 -8 -93 28 -93h11v-23h-163v23h13c41 0 85 39 105 93l204 543l-4 9c42 6 70 25 66 46h9c6 0 18 -46 18 -46l215 -553c20 -54 52 -93 74 -93h7v-23h-217v23h11c36 0 47 39 27 93c-19 51 -39 104 -58 156h-287zM234 282h281l-142 374z" />
    <glyph glyph-name="b" unicode="b" horiz-adv-x="719" 
d="M290 2h-239v23c22 0 36 16 36 47v557c0 31 -14 47 -36 47v23h243c274 0 350 -71 350 -168c0 -86 -118 -152 -290 -168c185 -9 315 -82 315 -180c0 -142 -159 -181 -379 -181zM283 3h2c164 0 284 39 284 179c0 100 -108 173 -258 177c-12 -1 -25 -1 -38 -1h-93v-273
c0 -48 24 -82 57 -82h46zM272 364l1 1c163 0 281 66 281 158c0 99 -58 171 -267 171h-105v-330h90z" />
    <glyph glyph-name="c" unicode="c" horiz-adv-x="805" 
d="M755 45l-15 2l-5 8c-6 12 -34 6 -65 -10c-58 -32 -135 -52 -240 -52c-220 0 -380 150 -380 357s164 357 392 357c108 0 179 -19 231 -50c31 -17 57 -24 63 -14l5 7h16v-116h-20l-9 17c-22 44 -66 90 -104 110c-46 25 -102 40 -177 40c-169 0 -292 -148 -292 -352
s117 -352 280 -352c73 0 133 16 183 42c41 21 87 67 108 108l9 17h20v-119z" />
    <glyph glyph-name="c" unicode="&#xe7;" horiz-adv-x="805" 
d="M755 45l-15 2l-5 8c-6 12 -34 6 -65 -10c-58 -32 -135 -52 -240 -52c-220 0 -380 150 -380 357s164 357 392 357c108 0 179 -19 231 -50c31 -17 57 -24 63 -14l5 7h16v-116h-20l-9 17c-22 44 -66 90 -104 110c-46 25 -102 40 -177 40c-169 0 -292 -148 -292 -352
s117 -352 280 -352c73 0 133 16 183 42c41 21 87 67 108 108l9 17h20v-119z" />
    <glyph glyph-name="d" unicode="d" horiz-adv-x="847" 
d="M50 698l291 -3c291 0 456 -146 456 -348c0 -222 -215 -348 -510 -348h-237v19c22 0 36 16 36 47v567c0 31 -14 47 -36 47v19zM280 3v1c241 0 416 124 416 343c0 200 -136 344 -374 344h-142v-618c0 -40 13 -70 100 -70z" />
    <glyph glyph-name="e" unicode="e" horiz-adv-x="655" 
d="M50 2l-2 19h8c27 0 47 27 47 65v529c0 38 -19 65 -46 65h-8v19h519v-2c3 -25 8 -60 12 -85h-16l-6 12c-18 41 -63 71 -107 71h-255v-329h199c43 0 84 30 97 71l4 12h16v-83h1v-6h-1v-83h-16l-4 12c-13 41 -54 71 -97 71h-199v-283c0 -40 9 -70 74 -70h181
c57 0 112 26 132 62l6 11h16c-2 -9 -13 -74 -13 -78h-542z" />
    <glyph glyph-name="e" unicode="&#xeb;" horiz-adv-x="655" 
d="M50 2l-2 19h8c27 0 47 27 47 65v529c0 38 -19 65 -46 65h-8v19h519v-2c3 -25 8 -60 12 -85h-16l-6 12c-18 41 -63 71 -107 71h-255v-329h199c43 0 84 30 97 71l4 12h16v-83h1v-6h-1v-83h-16l-4 12c-13 41 -54 71 -97 71h-199v-283c0 -40 9 -70 74 -70h181
c57 0 112 26 132 62l6 11h16c-2 -9 -13 -74 -13 -78h-542z" />
    <glyph glyph-name="e" unicode="&#xea;" horiz-adv-x="655" 
d="M50 2l-2 19h8c27 0 47 27 47 65v529c0 38 -19 65 -46 65h-8v19h519v-2c3 -25 8 -60 12 -85h-16l-6 12c-18 41 -63 71 -107 71h-255v-329h199c43 0 84 30 97 71l4 12h16v-83h1v-6h-1v-83h-16l-4 12c-13 41 -54 71 -97 71h-199v-283c0 -40 9 -70 74 -70h181
c57 0 112 26 132 62l6 11h16c-2 -9 -13 -74 -13 -78h-542z" />
    <glyph glyph-name="e" unicode="&#xe9;" horiz-adv-x="655" 
d="M50 2l-2 19h8c27 0 47 27 47 65v529c0 38 -19 65 -46 65h-8v19h519v-2c3 -25 8 -60 12 -85h-16l-6 12c-18 41 -63 71 -107 71h-255v-329h199c43 0 84 30 97 71l4 12h16v-83h1v-6h-1v-83h-16l-4 12c-13 41 -54 71 -97 71h-199v-283c0 -40 9 -70 74 -70h181
c57 0 112 26 132 62l6 11h16c-2 -9 -13 -74 -13 -78h-542z" />
    <glyph glyph-name="e" unicode="&#xe8;" horiz-adv-x="655" 
d="M50 2l-2 19h8c27 0 47 27 47 65v529c0 38 -19 65 -46 65h-8v19h519v-2c3 -25 8 -60 12 -85h-16l-6 12c-18 41 -63 71 -107 71h-255v-329h199c43 0 84 30 97 71l4 12h16v-83h1v-6h-1v-83h-16l-4 12c-13 41 -54 71 -97 71h-199v-283c0 -40 9 -70 74 -70h181
c57 0 112 26 132 62l6 11h16c-2 -9 -13 -74 -13 -78h-542z" />
    <glyph glyph-name="f" unicode="f" horiz-adv-x="630" 
d="M50 680v18h519v-2h1c3 -24 8 -60 11 -84h-16l-6 12c-18 41 -63 71 -106 71h-256v-330h190c43 0 84 30 97 71l4 12h16v-171h-16l-4 12c-13 41 -54 71 -97 71h-190v-274c0 -38 19 -65 46 -65h8v-19h-202v19h8c27 0 47 27 47 65v529c0 38 -19 65 -46 65h-8z" />
    <glyph glyph-name="g" unicode="g" horiz-adv-x="855" 
d="M739 652l13 5v-116h-20l-9 17c-22 44 -66 90 -104 110c-46 25 -102 40 -177 40c-169 0 -292 -148 -292 -352c0 -197 124 -339 295 -339c109 0 190 39 198 96v94c0 46 -17 79 -39 79h-6v23h184v-23h-6c-22 0 -39 -33 -39 -79v-162c25 6 46 13 65 21l2 -4
c-84 -39 -200 -67 -374 -67c-221 0 -382 150 -382 357s164 357 392 357c108 0 179 -19 231 -50c31 -17 57 -24 63 -14zM565 20h-1c-42 -2 -91 -4 -120 -4c45 0 85 1 121 4z" />
    <glyph glyph-name="h" unicode="h" horiz-adv-x="767" 
d="M717 20v-19h-165v19c22 0 36 16 36 47v291h-409v-291c0 -31 14 -47 36 -47v-19h-165v19c22 0 36 16 36 47v566c0 31 -14 47 -36 47v19h165v-19c-22 0 -36 -16 -36 -47v-269h409v269c0 31 -14 47 -36 47v19h165v-19c-22 0 -36 -16 -36 -47v-566c0 -31 14 -47 36 -47z" />
    <glyph glyph-name="i" unicode="i" horiz-adv-x="265" 
d="M215 20v-19h-165v19c22 0 36 16 36 47v566c0 31 -14 47 -36 47v19h165v-19c-22 0 -36 -16 -36 -47v-566c0 -31 14 -47 36 -47z" />
    <glyph glyph-name="i" unicode="&#xef;" horiz-adv-x="265" 
d="M215 20v-19h-165v19c22 0 36 16 36 47v566c0 31 -14 47 -36 47v19h165v-19c-22 0 -36 -16 -36 -47v-566c0 -31 14 -47 36 -47z" />
    <glyph glyph-name="i" unicode="&#xee;" horiz-adv-x="265" 
d="M215 20v-19h-165v19c22 0 36 16 36 47v566c0 31 -14 47 -36 47v19h165v-19c-22 0 -36 -16 -36 -47v-566c0 -31 14 -47 36 -47z" />
    <glyph glyph-name="i" unicode="&#xed;" horiz-adv-x="265" 
d="M215 20v-19h-165v19c22 0 36 16 36 47v566c0 31 -14 47 -36 47v19h165v-19c-22 0 -36 -16 -36 -47v-566c0 -31 14 -47 36 -47z" />
    <glyph glyph-name="i" unicode="&#xec;" horiz-adv-x="265" 
d="M215 20v-19h-165v19c22 0 36 16 36 47v566c0 31 -14 47 -36 47v19h165v-19c-22 0 -36 -16 -36 -47v-566c0 -31 14 -47 36 -47z" />
    <glyph glyph-name="j" unicode="j" horiz-adv-x="470" 
d="M420 680v1c-22 0 -36 -16 -36 -47v-524c0 -254 -136 -313 -228 -313c-61 0 -106 17 -106 41s18 42 42 42c45 0 25 -74 70 -74c52 0 129 24 129 129v698c0 31 -14 47 -36 47v19h165v-19z" />
    <glyph glyph-name="k" unicode="k" horiz-adv-x="769" 
d="M640 698l-1 -16c-34 0 -72 -18 -114 -52l-262 -228l368 -333c33 -30 64 -47 88 -47v-19h-150l-390 348v-283c0 -31 14 -47 36 -47v-19h-165v19c22 0 36 16 36 47v566c0 31 -14 47 -36 47v19h165v-19c-22 0 -36 -16 -36 -47v-283l268 241c55 51 68 87 29 87h-12v19h176z
" />
    <glyph glyph-name="l" unicode="l" horiz-adv-x="659" 
d="M215 698l1 -21c-22 0 -36 -16 -36 -47v-557c0 -34 9 -58 74 -58h202c57 0 112 26 132 62l6 11h16c-5 -22 -11 -53 -16 -76v-12h-544v19c22 0 36 16 36 47v566c0 31 -14 47 -36 47v19h165z" />
    <glyph glyph-name="m" unicode="m" horiz-adv-x="901" 
d="M828 698l6 -18c-21 0 -33 -13 -34 -41l19 -573c1 -31 15 -47 37 -47v-19h-165v19c22 0 35 16 34 47c-5 186 -11 373 -16 559l-263 -624h-23c-97 202 -195 404 -293 606l-9 -549c2 -27 15 -39 36 -39v-19h-105v19c22 0 36 16 37 47c6 195 12 391 18 586
c-15 19 -29 27 -49 27v19h139l268 -584l239 584h124z" />
    <glyph glyph-name="n" unicode="n" horiz-adv-x="797" 
d="M50 697h137l498 -555l-1 490c0 31 -14 47 -36 47v19h100v-19c-21 0 -34 -13 -37 -40l-6 -638h-19l-522 591l3 -526c0 -31 14 -47 36 -47v-19h-100v19c22 0 36 16 36 47l1 553l-18 19c-26 27 -49 41 -72 41v18z" />
    <glyph glyph-name="n" unicode="&#xf1;" horiz-adv-x="797" 
d="M50 697h137l498 -555l-1 490c0 31 -14 47 -36 47v19h100v-19c-21 0 -34 -13 -37 -40l-6 -638h-19l-522 591l3 -526c0 -31 14 -47 36 -47v-19h-100v19c22 0 36 16 36 47l1 553l-18 19c-26 27 -49 41 -72 41v18z" />
    <glyph glyph-name="o" unicode="o" horiz-adv-x="897" 
d="M50 350h2c0 207 165 357 393 357c234 0 403 -150 403 -357s-173 -357 -413 -357c-223 0 -385 150 -385 357zM153 350c0 -203 120 -351 284 -351c180 0 311 148 311 351s-127 351 -303 351c-169 0 -292 -148 -292 -351z" />
    <glyph glyph-name="o" unicode="&#xf8;" horiz-adv-x="897" 
d="M50 350h2c0 207 165 357 393 357c234 0 403 -150 403 -357s-173 -357 -413 -357c-223 0 -385 150 -385 357zM153 350c0 -203 120 -351 284 -351c180 0 311 148 311 351s-127 351 -303 351c-169 0 -292 -148 -292 -351z" />
    <glyph glyph-name="o" unicode="&#xf6;" horiz-adv-x="897" 
d="M50 350h2c0 207 165 357 393 357c234 0 403 -150 403 -357s-173 -357 -413 -357c-223 0 -385 150 -385 357zM153 350c0 -203 120 -351 284 -351c180 0 311 148 311 351s-127 351 -303 351c-169 0 -292 -148 -292 -351z" />
    <glyph glyph-name="o" unicode="&#xf5;" horiz-adv-x="897" 
d="M50 350h2c0 207 165 357 393 357c234 0 403 -150 403 -357s-173 -357 -413 -357c-223 0 -385 150 -385 357zM153 350c0 -203 120 -351 284 -351c180 0 311 148 311 351s-127 351 -303 351c-169 0 -292 -148 -292 -351z" />
    <glyph glyph-name="o" unicode="&#xf4;" horiz-adv-x="897" 
d="M50 350h2c0 207 165 357 393 357c234 0 403 -150 403 -357s-173 -357 -413 -357c-223 0 -385 150 -385 357zM153 350c0 -203 120 -351 284 -351c180 0 311 148 311 351s-127 351 -303 351c-169 0 -292 -148 -292 -351z" />
    <glyph glyph-name="o" unicode="&#xf3;" horiz-adv-x="897" 
d="M50 350h2c0 207 165 357 393 357c234 0 403 -150 403 -357s-173 -357 -413 -357c-223 0 -385 150 -385 357zM153 350c0 -203 120 -351 284 -351c180 0 311 148 311 351s-127 351 -303 351c-169 0 -292 -148 -292 -351z" />
    <glyph glyph-name="o" unicode="&#xf2;" horiz-adv-x="897" 
d="M50 350h2c0 207 165 357 393 357c234 0 403 -150 403 -357s-173 -357 -413 -357c-223 0 -385 150 -385 357zM153 350c0 -203 120 -351 284 -351c180 0 311 148 311 351s-127 351 -303 351c-169 0 -292 -148 -292 -351z" />
    <glyph glyph-name="p" unicode="p" horiz-adv-x="675" 
d="M215 20v-20h-165v19c22 0 36 16 36 47v566c0 31 -14 47 -36 47v19h264c180 0 311 -83 311 -196c0 -121 -159 -181 -379 -181h-67v-254c0 -31 14 -47 36 -47zM179 339l66 -1c169 0 292 59 292 177c0 96 -104 166 -247 166h-111v-342z" />
    <glyph glyph-name="q" unicode="q" horiz-adv-x="934" 
d="M1276 -46l3 -2c-68 -57 -225 -98 -375 -98c-197 0 -462 70 -632 167c-134 54 -220 176 -220 327c0 207 165 357 393 357c234 0 403 -150 403 -357s-173 -357 -413 -357c-20 0 -40 1 -59 4c101 -46 319 -78 537 -78c182 0 333 17 361 40zM154 348h-1
c0 -206 117 -355 278 -355c184 0 318 149 318 355c0 203 -127 351 -303 351c-169 0 -292 -148 -292 -351z" />
    <glyph glyph-name="r" unicode="r" horiz-adv-x="791" 
d="M50 680l2 19h308c152 0 263 -83 263 -197c0 -89 -69 -143 -172 -163c28 -41 94 -139 177 -263c34 -52 42 -56 114 -56v-19c-161 0 -177 6 -223 75c-82 121 -145 220 -164 255h-176v-265c0 -31 14 -47 36 -47v-19h-165v19c22 0 36 16 36 47v567c0 31 -14 47 -36 47z
M181 355l179 -1c93 0 160 55 160 166c0 93 -79 160 -188 160h-151v-325z" />
    <glyph glyph-name="s" unicode="s" horiz-adv-x="612" 
d="M508 659l21 -2v-104h-20l-9 18c-22 46 -68 91 -110 109c-33 13 -71 20 -110 20c-80 0 -139 -59 -139 -142c0 -48 78 -111 215 -161c134 -48 210 -134 210 -214c0 -111 -100 -192 -237 -192c-67 0 -133 19 -185 51c-34 20 -63 26 -69 11l-4 -11h-17v137h21l8 -19
c23 -52 69 -105 110 -127s87 -35 133 -35c95 0 164 66 164 157c0 44 -70 101 -192 146c-149 54 -234 143 -234 223c0 106 89 183 212 183c38 0 75 -5 108 -14l2 4c11 -4 21 -9 31 -15c15 -6 76 -40 86 -28z" />
    <glyph glyph-name="s" unicode="&#xdf;" horiz-adv-x="612" 
d="M508 659l21 -2v-104h-20l-9 18c-22 46 -68 91 -110 109c-33 13 -71 20 -110 20c-80 0 -139 -59 -139 -142c0 -48 78 -111 215 -161c134 -48 210 -134 210 -214c0 -111 -100 -192 -237 -192c-67 0 -133 19 -185 51c-34 20 -63 26 -69 11l-4 -11h-17v137h21l8 -19
c23 -52 69 -105 110 -127s87 -35 133 -35c95 0 164 66 164 157c0 44 -70 101 -192 146c-149 54 -234 143 -234 223c0 106 89 183 212 183c38 0 75 -5 108 -14l2 4c11 -4 21 -9 31 -15c15 -6 76 -40 86 -28z" />
    <glyph glyph-name="t" unicode="t" horiz-adv-x="862" 
d="M348 2l4 17c22 0 36 16 36 47v608h-186c-46 0 -99 -26 -126 -62l-8 -11h-16c9 23 21 55 31 79v17l-1 -2v3v1h701v-20c9 -24 21 -54 30 -76h-16l-8 11c-28 36 -81 62 -127 62h-185v-608c0 -31 14 -47 36 -47v-19h-165zM84 695l-4 -9c1 2 2 6 4 9zM790 685l-4 9
c2 -3 3 -7 4 -9z" />
    <glyph glyph-name="u" unicode="u" horiz-adv-x="773" 
d="M723 43l-1 -20c-2 -1 -36 -8 -36 -11l-46 -12h-46v151c-44 -93 -155 -161 -266 -161c-141 0 -243 97 -243 231v410c0 31 -14 47 -36 47v19h129v-475c0 -99 79 -170 188 -170c93 0 189 60 228 143v438c0 31 -14 47 -36 47v19h129v-619c0 -32 16 -43 36 -37z" />
    <glyph glyph-name="u" unicode="&#xfc;" horiz-adv-x="773" 
d="M723 43l-1 -20c-2 -1 -36 -8 -36 -11l-46 -12h-46v151c-44 -93 -155 -161 -266 -161c-141 0 -243 97 -243 231v410c0 31 -14 47 -36 47v19h129v-475c0 -99 79 -170 188 -170c93 0 189 60 228 143v438c0 31 -14 47 -36 47v19h129v-619c0 -32 16 -43 36 -37z" />
    <glyph glyph-name="u" unicode="&#xfb;" horiz-adv-x="773" 
d="M723 43l-1 -20c-2 -1 -36 -8 -36 -11l-46 -12h-46v151c-44 -93 -155 -161 -266 -161c-141 0 -243 97 -243 231v410c0 31 -14 47 -36 47v19h129v-475c0 -99 79 -170 188 -170c93 0 189 60 228 143v438c0 31 -14 47 -36 47v19h129v-619c0 -32 16 -43 36 -37z" />
    <glyph glyph-name="u" unicode="&#xfa;" horiz-adv-x="773" 
d="M723 43l-1 -20c-2 -1 -36 -8 -36 -11l-46 -12h-46v151c-44 -93 -155 -161 -266 -161c-141 0 -243 97 -243 231v410c0 31 -14 47 -36 47v19h129v-475c0 -99 79 -170 188 -170c93 0 189 60 228 143v438c0 31 -14 47 -36 47v19h129v-619c0 -32 16 -43 36 -37z" />
    <glyph glyph-name="u" unicode="&#xf9;" horiz-adv-x="773" 
d="M723 43l-1 -20c-2 -1 -36 -8 -36 -11l-46 -12h-46v151c-44 -93 -155 -161 -266 -161c-141 0 -243 97 -243 231v410c0 31 -14 47 -36 47v19h129v-475c0 -99 79 -170 188 -170c93 0 189 60 228 143v438c0 31 -14 47 -36 47v19h129v-619c0 -32 16 -43 36 -37z" />
    <glyph glyph-name="v" unicode="v" horiz-adv-x="835" 
d="M117 589l2 1c-26 53 -50 86 -68 86v23h205v-23h-10c-34 0 -42 -35 -22 -85l227 -487l220 488c19 48 5 82 -35 82h-13v23h163v-23c-26 0 -53 -30 -80 -82l-287 -601h-19c-95 199 -189 399 -283 598z" />
    <glyph glyph-name="w" unicode="w" horiz-adv-x="1187" 
d="M556 601l-3 1c-21 46 -42 74 -64 74v23h202v-23h-10c-31 0 -42 -27 -28 -65l216 -480l162 479c9 38 -11 65 -50 65h-12v23h165v-23h-6c-22 0 -50 -32 -65 -75c-72 -202 -144 -405 -216 -607h-23c-65 148 -130 295 -195 442l-227 -441h-23l-276 621c-19 39 -37 61 -55 61
v23h178v-23h-7c-38 0 -6 -74 -6 -74l226 -488l176 352z" />
    <glyph glyph-name="x" unicode="x" horiz-adv-x="817" 
d="M189 20l2 -19h-140v19c31 0 62 18 91 51c76 87 151 174 226 261l-245 308c-21 25 -40 39 -53 39v19h172v-19h-6c-19 0 -16 -21 7 -51c63 -80 128 -161 191 -241l207 242c23 29 20 49 -8 49h-8v19h143v-19c-29 0 -62 -18 -94 -50l-238 -247l256 -322c22 -25 41 -40 54 -40
v-19h-173v19h6c19 0 16 21 -7 51c-64 82 -130 165 -195 247l-207 -250c-21 -28 -17 -47 11 -47h8z" />
    <glyph glyph-name="y" unicode="y" horiz-adv-x="785" 
d="M299 2l-2 19h8c27 0 47 27 47 65v215l-242 328c-23 32 -44 52 -59 52v19h173v-19h-6c-20 0 -19 -21 2 -51c73 -102 149 -205 223 -307l202 309c18 29 11 49 -18 49h-10v19h119v-19c-30 0 -58 -19 -79 -52l-210 -315v-228c0 -38 19 -65 46 -65h8v-19h-202z" />
    <glyph glyph-name="y" unicode="&#xff;" horiz-adv-x="785" 
d="M299 2l-2 19h8c27 0 47 27 47 65v215l-242 328c-23 32 -44 52 -59 52v19h173v-19h-6c-20 0 -19 -21 2 -51c73 -102 149 -205 223 -307l202 309c18 29 11 49 -18 49h-10v19h119v-19c-30 0 -58 -19 -79 -52l-210 -315v-228c0 -38 19 -65 46 -65h8v-19h-202z" />
    <glyph glyph-name="y" unicode="&#xfd;" horiz-adv-x="785" 
d="M299 2l-2 19h8c27 0 47 27 47 65v215l-242 328c-23 32 -44 52 -59 52v19h173v-19h-6c-20 0 -19 -21 2 -51c73 -102 149 -205 223 -307l202 309c18 29 11 49 -18 49h-10v19h119v-19c-30 0 -58 -19 -79 -52l-210 -315v-228c0 -38 19 -65 46 -65h8v-19h-202z" />
    <glyph glyph-name="z" unicode="z" horiz-adv-x="746" 
d="M84 599l-2 1c3 33 5 59 6 74h-1l3 26h585v-19l-515 -658l378 6c57 1 114 28 135 64l6 11h16c-7 -33 -13 -59 -17 -74h1l-6 -28h-623v19l525 658l-351 -5c-55 -3 -105 -29 -120 -64l-5 -11h-15z" />
    <glyph glyph-name="nbspace" unicode="&#xa0;" horiz-adv-x="389" 
 />
  </font>
</defs>
</svg>
